<?xml version="1.0" encoding="UTF-8" standalone="no"?>
<!-- Created with Inkscape (http://www.inkscape.org/) -->

<svg
   xmlns:dc="http://purl.org/dc/elements/1.1/"
   xmlns:cc="http://creativecommons.org/ns#"
   xmlns:rdf="http://www.w3.org/1999/02/22-rdf-syntax-ns#"
   xmlns:svg="http://www.w3.org/2000/svg"
   xmlns="http://www.w3.org/2000/svg"
   xmlns:sodipodi="http://sodipodi.sourceforge.net/DTD/sodipodi-0.dtd"
   xmlns:inkscape="http://www.inkscape.org/namespaces/inkscape"
   width="40.084148mm"
   height="45.246651mm"
   viewBox="0 0 40.084149 45.24665"
   version="1.1"
   id="svg1676"
   inkscape:version="0.92.4 (5da689c313, 2019-01-14)"
   sodipodi:docname="Mog Logo.svg">
  <defs
     id="defs1670" />
  <sodipodi:namedview
     id="base"
     pagecolor="#ffffff"
     bordercolor="#666666"
     borderopacity="1.0"
     inkscape:pageopacity="0.0"
     inkscape:pageshadow="2"
     inkscape:zoom="3.959798"
     inkscape:cx="89.656505"
     inkscape:cy="99.163671"
     inkscape:document-units="mm"
     inkscape:current-layer="layer5"
     showgrid="false"
     inkscape:window-width="1600"
     inkscape:window-height="1137"
     inkscape:window-x="-8"
     inkscape:window-y="-8"
     inkscape:window-maximized="1"
     showguides="true"
     fit-margin-top="0"
     fit-margin-left="0"
     fit-margin-right="0"
     fit-margin-bottom="0" />
  <metadata
     id="metadata1673">
    <rdf:RDF>
      <cc:Work
         rdf:about="">
        <dc:format>image/svg+xml</dc:format>
        <dc:type
           rdf:resource="http://purl.org/dc/dcmitype/StillImage" />
        <dc:title></dc:title>
      </cc:Work>
    </rdf:RDF>
  </metadata>
  <g
     inkscape:groupmode="layer"
     id="layer5"
     inkscape:label="Layer 5"
     transform="translate(-62.692752,-112.26805)"
     style="display:none">
    <rect
       style="opacity:1;fill:#666666;fill-opacity:1;stroke:none;stroke-width:2.07814646;stroke-linecap:round;stroke-linejoin:bevel;stroke-miterlimit:4;stroke-dasharray:none;stroke-dashoffset:0;stroke-opacity:1;paint-order:normal"
       id="rect2265"
       width="40.161907"
       height="45.623562"
       x="62.716785"
       y="112.21495"
       rx="0"
       ry="0" />
  </g>
  <g
     inkscape:groupmode="layer"
     id="layer1"
     inkscape:label="Layer 6"
     style="display:inline;opacity:1"
     transform="translate(2.6464386,4.3845204e-6)">
    <ellipse
       style="display:inline;opacity:1;fill:#ffffff;fill-opacity:1;stroke:none;stroke-width:2.45931053;stroke-linecap:round;stroke-linejoin:bevel;stroke-miterlimit:4;stroke-dasharray:none;stroke-dashoffset:0;stroke-opacity:1;paint-order:normal;enable-background:new"
       id="ellipse1855"
       cx="18.150166"
       cy="26.84103"
       rx="18.091461"
       ry="18.621799"
       transform="matrix(1,0,-0.09740468,0.99524486,0,0)" />
  </g>
  <g
     inkscape:groupmode="layer"
     id="layer4"
     inkscape:label="Layer 4"
     style="display:inline"
     transform="translate(-62.692752,-112.26805)">
    <ellipse
       id="circle2261"
       style="display:inline;opacity:1;fill:#000000;fill-opacity:1;stroke:#fafafa;stroke-width:1.20063841;stroke-linecap:round;stroke-linejoin:bevel;stroke-miterlimit:4;stroke-dasharray:none;stroke-dashoffset:0;stroke-opacity:1;paint-order:normal"
       transform="matrix(1,0,-0.04609859,0.99893689,0,0)"
       ry="8.4474974"
       rx="8.155035"
       cy="127.59317"
       cx="80.38707" />
    <path
       sodipodi:type="spiral"
       style="fill:none;fill-rule:evenodd;stroke:#000000;stroke-width:3.556916;stroke-linecap:round;stroke-miterlimit:4;stroke-dasharray:none"
       id="path2271"
       sodipodi:cx="76.441231"
       sodipodi:cy="142.31938"
       sodipodi:expansion="2.27"
       sodipodi:revolution="3.03"
       sodipodi:radius="17.263502"
       sodipodi:argument="-16.809479"
       sodipodi:t0="0.34"
       d="m 75.527985,143.49844 c -1.088851,-0.36294 -1.414144,-1.69279 -1.017492,-2.67452 0.656075,-1.62382 2.678463,-2.07929 4.17273,-1.39909 2.279922,1.03785 2.890173,3.92751 1.839009,6.05552 -1.512723,3.06241 -5.452603,3.85271 -8.340602,2.33844 -3.975921,-2.0847 -4.972224,-7.26503 -2.898555,-11.04381 2.757375,-5.02467 9.374946,-6.25359 14.179452,-3.52052 6.212531,3.53403 7.70131,11.79167 4.205483,17.7607 -4.413305,7.5356 -14.506188,9.3176 -21.780969,4.96576"
       transform="matrix(1.0785827,-0.12603357,0.05996003,1.2788457,-4.3646186,-39.136191)" />
    <path
       transform="matrix(0.98475556,0.13202205,-0.11831647,1.1655692,28.251188,-43.505614)"
       d="m 75.681011,143.30087 c -0.940363,-0.28939 -1.229028,-1.43047 -0.90747,-2.27321 0.551867,-1.44633 2.339827,-1.86169 3.663853,-1.28545 2.084107,0.90705 2.653799,3.5284 1.732054,5.46489 -1.362699,2.86288 -5.018315,3.61592 -7.707504,2.24978 -3.79108,-1.9259 -4.757859,-6.82978 -2.841136,-10.4203 2.603241,-4.87655 8.981504,-6.08876 13.629815,-3.50854 6.126643,3.40082 7.617219,11.49093 4.25437,17.36085 -4.320066,7.54076 -14.356926,9.34938 -21.617952,5.09203"
       sodipodi:t0="0.34"
       sodipodi:argument="-16.809479"
       sodipodi:radius="17.263502"
       sodipodi:revolution="3.03"
       sodipodi:expansion="2.4400001"
       sodipodi:cy="142.31938"
       sodipodi:cx="76.441231"
       id="path2275"
       style="fill:none;fill-rule:evenodd;stroke:#d1d1d1;stroke-width:3.55660367;stroke-linecap:round;stroke-miterlimit:4;stroke-dasharray:none;stroke-opacity:1"
       sodipodi:type="spiral" />
    <ellipse
       transform="matrix(0.99113254,0.13287698,-0.19639389,0.98052508,0,0)"
       ry="9.1990213"
       rx="7.7200007"
       style="display:inline;opacity:1;fill:#000000;fill-opacity:1;stroke:#040404;stroke-width:2.74281955;stroke-linecap:round;stroke-linejoin:bevel;stroke-miterlimit:4;stroke-dasharray:none;stroke-dashoffset:0;stroke-opacity:1;paint-order:normal"
       id="ellipse2277"
       cx="112.5768"
       cy="117.98996" />
    <ellipse
       cx="80.38707"
       cy="127.59317"
       rx="8.155035"
       ry="8.4474974"
       transform="matrix(1,0,-0.04609859,0.99893689,0,0)"
       style="display:inline;opacity:1;fill:#000000;fill-opacity:1;stroke:#fafafa;stroke-width:2.00106406;stroke-linecap:round;stroke-linejoin:bevel;stroke-miterlimit:4;stroke-dasharray:none;stroke-dashoffset:0;stroke-opacity:1;paint-order:normal"
       id="ellipse2279" />
    <ellipse
       id="ellipse891"
       style="display:inline;opacity:1;fill:#000000;fill-opacity:1;stroke:#fafafa;stroke-width:2.00106406;stroke-linecap:round;stroke-linejoin:bevel;stroke-miterlimit:4;stroke-dasharray:none;stroke-dashoffset:0;stroke-opacity:1;paint-order:normal"
       transform="matrix(1,0,-0.04609859,0.99893689,0,0)"
       ry="8.4474974"
       rx="8.155035"
       cy="127.59317"
       cx="80.38707" />
  </g>
  <g
     inkscape:groupmode="layer"
     id="layer2"
     inkscape:label="Layer 2"
     style="display:inline"
     transform="translate(-62.692752,-112.26805)">
    <path
       style="fill:none;stroke:#ffffff;stroke-width:2.78615713;stroke-linecap:round;stroke-linejoin:miter;stroke-miterlimit:4;stroke-dasharray:none;stroke-opacity:1"
       d="m 67.762241,120.90094 c 2.230472,-5.40728 -0.557617,-9.90067 2.230472,-5.40728 2.788088,4.49338 2.947406,7.53975 2.947406,7.53975 v 0"
       id="path2243"
       inkscape:connector-curvature="0" />
    <path
       inkscape:connector-curvature="0"
       id="path2245"
       d="m 79.036653,122.82621 c -0.05998,-5.45885 4.576541,-8.50151 -0.05998,-5.45885 -4.636513,3.04265 -6.032306,5.66243 -6.032306,5.66243 v 0"
       style="fill:none;stroke:#ffffff;stroke-width:2.78615713;stroke-linecap:round;stroke-linejoin:miter;stroke-miterlimit:4;stroke-dasharray:none;stroke-opacity:1" />
  </g>
  <g
     inkscape:groupmode="layer"
     id="layer3"
     inkscape:label="Layer 3"
     style="display:inline"
     transform="translate(-62.692752,-112.26805)">
    <path
       inkscape:connector-curvature="0"
       id="path2248"
       d="m 67.762241,120.90094 c 2.230472,-5.40728 -0.557617,-9.90067 2.230472,-5.40728 2.788088,4.49338 2.947406,7.53975 2.947406,7.53975 v 0"
       style="display:inline;fill:none;stroke:#000000;stroke-width:1.5174228;stroke-linecap:round;stroke-linejoin:miter;stroke-miterlimit:4;stroke-dasharray:none;stroke-opacity:1" />
    <path
       style="display:inline;fill:none;stroke:#000000;stroke-width:1.5174228;stroke-linecap:round;stroke-linejoin:miter;stroke-miterlimit:4;stroke-dasharray:none;stroke-opacity:1"
       d="m 79.036653,122.82621 c -0.05998,-5.45885 4.576541,-8.50151 -0.05998,-5.45885 -4.636513,3.04265 -6.032306,5.66243 -6.032306,5.66243 v 0"
       id="path2250"
       inkscape:connector-curvature="0" />
  </g>
</svg>
